<?xml version="1.0" encoding="UTF-8" standalone="no"?>
<svg
   xmlns:dc="http://purl.org/dc/elements/1.1/"
   xmlns:cc="http://creativecommons.org/ns#"
   xmlns:rdf="http://www.w3.org/1999/02/22-rdf-syntax-ns#"
   xmlns:svg="http://www.w3.org/2000/svg"
   xmlns="http://www.w3.org/2000/svg"
   xmlns:sodipodi="http://sodipodi.sourceforge.net/DTD/sodipodi-0.dtd"
   xmlns:inkscape="http://www.inkscape.org/namespaces/inkscape"
   width="409"
   height="86"
   viewBox="0 0 327.2 68.8"
   version="1.1"
   id="svg2"
   inkscape:version="0.48.4 r9939"
   sodipodi:docname="BillboardLogo2013.svg">
  <metadata
     id="metadata43">
    <rdf:RDF>
      <cc:Work
         rdf:about="">
        <dc:format>image/svg+xml</dc:format>
        <dc:type
           rdf:resource="http://purl.org/dc/dcmitype/StillImage" />
      </cc:Work>
    </rdf:RDF>
  </metadata>
  <defs
     id="defs41" />
  <sodipodi:namedview
     pagecolor="#ffffff"
     bordercolor="#666666"
     borderopacity="1"
     objecttolerance="10"
     gridtolerance="10"
     guidetolerance="10"
     inkscape:pageopacity="0"
     inkscape:pageshadow="2"
     inkscape:window-width="1024"
     inkscape:window-height="714"
     id="namedview39"
     showgrid="false"
     inkscape:zoom="2.0364675"
     inkscape:cx="185.45211"
     inkscape:cy="28.066499"
     inkscape:window-x="-4"
     inkscape:window-y="-4"
     inkscape:window-maximized="1"
     inkscape:current-layer="svg2" />
  <g
     id="g3058"
     transform="translate(-0.27777778,-0.48888895)">
    <g
       transform="translate(1.5713484,2.6143258)"
       id="#231f20ff">
      <path
         id="path8"
         d="m 56.36,0 2.97,0 c 5.49,1.07 9.05,7.55 6.21,12.59 C 62.66,18.57 53.09,18.75 49.97,12.9 46.8,7.8 50.5,0.75 56.36,0 z"
         inkscape:connector-curvature="0"
         style="fill:#231f20" />
      <path
         id="path10"
         d="m 68.41,2.42 c 5.09,0.04 10.19,0 15.28,0.03 -0.02,20.96 0.07,41.92 -0.04,62.88 C 78.57,65.29 73.48,65.31 68.4,65.32 68.35,44.36 68.34,23.39 68.41,2.42 z"
         inkscape:connector-curvature="0"
         style="fill:#231f20" />
      <path
         id="path12"
         d="m 86.74,2.48 c 5.08,-0.09 10.17,0 15.25,-0.07 0.18,20.97 0.03,41.94 0.07,62.91 -5.1,-0.02 -10.2,0 -15.3,-0.02 C 86.73,44.36 86.77,23.42 86.74,2.48 z"
         inkscape:connector-curvature="0"
         style="fill:#231f20" />
      <path
         id="path14"
         d="m 105.33,2.43 c 5.1,0.01 10.2,0 15.3,0.02 -0.02,6.58 0.04,13.17 -0.03,19.75 6.85,-3.96 15.84,-3.5 22.54,0.57 5.35,3.13 8.69,8.72 10.22,14.61 1.46,-5.95 5.12,-11.38 10.37,-14.61 8.17,-5.32 19.62,-4.79 27.26,1.26 4.35,3.25 7.14,8.13 8.65,13.27 1.42,-7.92 7.28,-15.08 15.21,-17.08 5.9,-1.81 12.54,-0.74 17.41,3.09 -0.03,-0.79 -0.08,-2.38 -0.1,-3.18 5.11,-0.02 10.23,-0.01 15.35,0.01 -0.03,15.05 -0.01,30.11 -0.01,45.17 -5.12,0 -10.24,0.01 -15.35,-0.01 0.02,-0.58 0.06,-1.73 0.08,-2.3 -12.31,7.98 -30.95,-0.37 -32.65,-15.08 -1.63,5.79 -5.15,11.14 -10.33,14.32 -8.37,5.45 -20.16,4.74 -27.83,-1.64 -4.09,-3.27 -6.84,-7.98 -8.06,-13.05 -1.32,7.04 -5.84,13.6 -12.46,16.56 -6.64,3.17 -15.04,2.24 -20.53,-2.76 0,1.31 0,2.63 0,3.95 -5.02,0.02 -10.04,0.02 -15.06,0 0,-20.96 -0.02,-41.91 0.02,-62.87 m 18.89,33.67 c -3.72,2.19 -3.43,7.24 -2.51,10.87 2.65,5.02 10.23,6.15 14.04,1.8 4.87,-3.99 2.36,-14.03 -4.49,-13.44 0.56,-0.26 1.12,-0.52 1.69,-0.78 -2.98,-0.16 -6.32,-0.62 -8.73,1.55 m 48.97,-1.81 c -5.2,1.8 -7.31,9 -3.64,13.19 3.87,5.29 13.38,3.85 15.21,-2.54 2.72,-6.65 -5.21,-13.64 -11.57,-10.65 m 46.11,0.11 c -5.68,1.72 -7.84,9.62 -3.59,13.85 4.63,5.29 15.33,2.32 15.11,-5.24 0.84,-6.11 -6.03,-10.56 -11.52,-8.61 z"
         inkscape:connector-curvature="0"
         style="fill:#231f20" />
      <path
         id="path16"
         d="m 0,2.44 c 5.08,0 10.17,-0.02 15.25,0 -0.02,6.58 0.04,13.15 -0.04,19.73 9.3,-5.26 22.28,-2.62 28.58,6.08 6.07,8.26 6.14,20.41 0.23,28.78 -6.15,9.36 -20.54,12.1 -29.05,4.37 0.01,0.98 0.03,2.95 0.04,3.93 C 10.01,65.3 5,65.31 0,65.31 L 0,2.44 m 21.09,32.42 c -6.4,1.94 -7.76,11.57 -1.98,15.06 5.25,4.14 14.06,-0.24 13.71,-6.97 0.34,-5.84 -6.42,-10.29 -11.73,-8.09 z"
         inkscape:connector-curvature="0"
         style="fill:#231f20" />
      <path
         id="path18"
         d="M 309.75,2.45 C 314.83,2.43 319.92,2.44 325,2.44 l 0,62.88 c -4.99,-0.01 -9.98,-0.02 -14.96,0.01 -0.01,-0.98 -0.02,-2.93 -0.03,-3.91 -2.69,1.91 -5.57,3.82 -8.92,4.24 -7.9,1.41 -16.21,-2.53 -20.5,-9.22 -6.72,-10.07 -4.91,-25.47 5.16,-32.69 6.84,-5.02 16.6,-5.74 24.03,-1.61 -0.06,-6.56 -0.01,-13.12 -0.03,-19.69 m -11.41,32.1 c -5.99,1.46 -8.42,9.78 -3.94,14.09 4.3,4.88 13.41,2.76 14.91,-3.63 1.96,-6.3 -4.87,-12.43 -10.97,-10.46 z"
         inkscape:connector-curvature="0"
         style="fill:#231f20" />
      <path
         id="path20"
         d="m 50,20.05 c 5.1,0.01 10.21,0 15.31,0.01 0,15.08 -0.01,30.16 0.01,45.24 -5.1,0.02 -10.19,0 -15.29,0.03 C 49.96,50.24 50.01,35.15 50,20.05 z"
         inkscape:connector-curvature="0"
         style="fill:#231f20" />
      <path
         id="path22"
         d="m 250.56,20.06 c 5.11,-0.01 10.22,-0.01 15.34,0 -0.01,1.04 -0.02,3.12 -0.03,4.16 2.56,-3.01 6.29,-4.53 10.19,-4.69 0.01,5.21 -0.02,10.41 0,15.61 -2.64,0.23 -5.67,0.08 -7.74,2.03 -1.96,1.69 -2.42,4.41 -2.43,6.86 -0.05,7.1 0.02,14.2 -0.03,21.3 -5.1,-0.04 -10.19,0 -15.29,-0.02 -0.01,-15.08 0.01,-30.17 -0.01,-45.25 z"
         inkscape:connector-curvature="0"
         style="fill:#231f20" />
    </g>
    <g
       transform="translate(1.5713484,2.6143258)"
       id="#ed1c34ff">
      <path
         id="path25"
         d="m 124.22,36.1 c 2.41,-2.17 5.75,-1.71 8.73,-1.55 -0.57,0.26 -1.13,0.52 -1.69,0.78 6.85,-0.59 9.36,9.45 4.49,13.44 -3.81,4.35 -11.39,3.22 -14.04,-1.8 -0.92,-3.63 -1.21,-8.68 2.51,-10.87 z"
         inkscape:connector-curvature="0"
         style="fill:#ed1c34" />
    </g>
    <g
       transform="translate(1.5713484,2.6143258)"
       id="#fdde04ff">
      <path
         id="path28"
         d="m 173.19,34.29 c 6.36,-2.99 14.29,4 11.57,10.65 -1.83,6.39 -11.34,7.83 -15.21,2.54 -3.67,-4.19 -1.56,-11.39 3.64,-13.19 z"
         inkscape:connector-curvature="0"
         style="fill:#fdde04" />
    </g>
    <g
       transform="translate(1.5713484,2.6143258)"
       id="#2eaee4ff">
      <path
         id="path31"
         d="m 219.3,34.4 c 5.49,-1.95 12.36,2.5 11.52,8.61 0.22,7.56 -10.48,10.53 -15.11,5.24 -4.25,-4.23 -2.09,-12.13 3.59,-13.85 z"
         inkscape:connector-curvature="0"
         style="fill:#2eaee4" />
    </g>
    <g
       transform="translate(1.5713484,2.6143258)"
       id="#fa9d1dff">
      <path
         id="path34"
         d="m 298.34,34.55 c 6.1,-1.97 12.93,4.16 10.97,10.46 -1.5,6.39 -10.61,8.51 -14.91,3.63 -4.48,-4.31 -2.05,-12.63 3.94,-14.09 z"
         inkscape:connector-curvature="0"
         style="fill:#fa9d1d" />
    </g>
    <g
       transform="translate(1.5713484,2.6143258)"
       id="#24aa4aff">
      <path
         id="path37"
         d="m 21.09,34.86 c 5.31,-2.2 12.07,2.25 11.73,8.09 0.35,6.73 -8.46,11.11 -13.71,6.97 -5.78,-3.49 -4.42,-13.12 1.98,-15.06 z"
         inkscape:connector-curvature="0"
         style="fill:#24aa4a" />
    </g>
    <path
       transform="matrix(0.8,0,0,0.8,1.5713484,2.6143258)"
       d="m 173.34587,53.69659 c 0,6.340581 -5.17514,11.480638 -11.559,11.480638 -6.38387,0 -11.55901,-5.140057 -11.55901,-11.480638 0,-6.340581 5.17514,-11.480637 11.55901,-11.480637 6.38386,0 11.559,5.140056 11.559,11.480637 z"
       sodipodi:ry="11.480638"
       sodipodi:rx="11.559004"
       sodipodi:cy="53.69659"
       sodipodi:cx="161.78687"
       id="path3832"
       style="fill:#ed1c34;fill-opacity:1;stroke:#ed1c34;stroke-opacity:1"
       sodipodi:type="arc" />
    <path
       transform="matrix(0.8,0,0,0.8,1.5713484,2.6143258)"
       d="m 231.88537,52.67783 c 0,6.124179 -5.05234,11.088807 -11.28472,11.088807 -6.23238,0 -11.28473,-4.964628 -11.28473,-11.088807 0,-6.124179 5.05235,-11.088807 11.28473,-11.088807 6.23238,0 11.28472,4.964628 11.28472,11.088807 z"
       sodipodi:ry="11.088807"
       sodipodi:rx="11.284722"
       sodipodi:cy="52.67783"
       sodipodi:cx="220.60065"
       id="path3834"
       style="fill:#fdde04;fill-opacity:1;stroke:#fdde04;stroke-opacity:1"
       sodipodi:type="arc" />
    <path
       transform="matrix(0.8,0,0,0.8,1.5713484,2.6143258)"
       d="m 289.56285,53.030479 c 0,6.1891 -5.17514,11.206356 -11.559,11.206356 -6.38387,0 -11.55901,-5.017256 -11.55901,-11.206356 0,-6.189099 5.17514,-11.206356 11.55901,-11.206356 6.38386,0 11.559,5.017257 11.559,11.206356 z"
       sodipodi:ry="11.206356"
       sodipodi:rx="11.559004"
       sodipodi:cy="53.030479"
       sodipodi:cx="278.00385"
       id="path3836"
       style="fill:#2eaee4;fill-opacity:1;stroke:#2eaee4;stroke-opacity:1"
       sodipodi:type="arc" />
    <path
       transform="matrix(0.8,0,0,0.8,1.5713484,2.6143258)"
       d="m 387.67723,53.383125 c 0,6.427142 -5.1576,11.63737 -11.51982,11.63737 -6.36222,0 -11.51982,-5.210228 -11.51982,-11.63737 0,-6.427142 5.1576,-11.63737 11.51982,-11.63737 6.36222,0 11.51982,5.210228 11.51982,11.63737 z"
       sodipodi:ry="11.63737"
       sodipodi:rx="11.51982"
       sodipodi:cy="53.383125"
       sodipodi:cx="376.15741"
       id="path3838"
       style="fill:#fa9d1d;fill-opacity:1;stroke:#fa9d1d;stroke-opacity:1"
       sodipodi:type="arc" />
    <path
       transform="matrix(0.8,0,0,0.8,1.5713484,2.6143258)"
       d="m 41.847512,53.774956 c 0,6.470422 -5.210228,11.715736 -11.63737,11.715736 -6.427142,0 -11.63737,-5.245314 -11.63737,-11.715736 0,-6.470423 5.210228,-11.715737 11.63737,-11.715737 6.427142,0 11.63737,5.245314 11.63737,11.715737 z"
       sodipodi:ry="11.715736"
       sodipodi:rx="11.63737"
       sodipodi:cy="53.774956"
       sodipodi:cx="30.210142"
       id="path3840"
       style="fill:#24aa4a;fill-opacity:1;stroke:#24aa4a;stroke-opacity:1"
       sodipodi:type="arc" />
    <path
       transform="matrix(0.8,0,0,0.8,1.5713484,2.6143258)"
       d="m 83.856708,10.677686 c 0,6.283164 -5.248195,11.376675 -11.722171,11.376675 -6.473976,0 -11.722171,-5.093511 -11.722171,-11.376675 0,-6.2831647 5.248195,-11.37667587 11.722171,-11.37667587 6.473976,0 11.722171,5.09351117 11.722171,11.37667587 z"
       sodipodi:ry="11.376676"
       sodipodi:rx="11.722171"
       sodipodi:cy="10.677686"
       sodipodi:cx="72.134537"
       id="path3842"
       style="fill:#231f20;fill-opacity:1;stroke:#231f20;stroke-opacity:1"
       sodipodi:type="arc" />
  </g>
</svg>
